<?xml version="1.0" encoding="iso-8859-1"?>
<!-- Generator: Adobe Illustrator 15.1.0, SVG Export Plug-In . SVG Version: 6.00 Build 0)  -->
<!DOCTYPE svg PUBLIC "-//W3C//DTD SVG 1.1//EN" "http://www.w3.org/Graphics/SVG/1.1/DTD/svg11.dtd">
<svg version="1.1" xmlns="http://www.w3.org/2000/svg" xmlns:xlink="http://www.w3.org/1999/xlink" x="0px" y="0px" width="30px"
	 height="30px" viewBox="0 0 30 30" style="enable-background:new 0 0 30 30;" xml:space="preserve">

<g id="Stale">
	<linearGradient id="SVGID_5_" gradientUnits="userSpaceOnUse" x1="14.9995" y1="2" x2="14.9995" y2="28.0005">
		<stop  offset="0" style="stop-color:#999999"/>
		<stop  offset="1" style="stop-color:#58595B"/>
	</linearGradient>
	<path display="inline" fill="url(#SVGID_5_)" d="M3.334,2C2.599,2,2,2.598,2,3.333v23.333C2,27.402,2.599,28,3.334,28h23.334
		C27.403,28,28,27.402,28,26.667V3.333C28,2.598,27.403,2,26.669,2H3.334z"/>
	<path display="inline" fill="#A8A7A8" d="M26.669,30H3.334C1.496,30,0,28.505,0,26.667V3.333C0,1.496,1.496,0,3.334,0h23.334
		C28.506,0,30,1.496,30,3.333v23.333C30,28.505,28.506,30,26.669,30z M3.334,2C2.599,2,2,2.598,2,3.333v23.333
		C2,27.402,2.599,28,3.334,28h23.334C27.403,28,28,27.402,28,26.667V3.333C28,2.598,27.403,2,26.669,2H3.334z"/>
</g>
<g id="Default" display="none">
	<linearGradient id="SVGID_6_" gradientUnits="userSpaceOnUse" x1="14.9995" y1="2" x2="14.9995" y2="28.0005">
		<stop  offset="0" style="stop-color:#D1D3D4"/>
		<stop  offset="1" style="stop-color:#808285"/>
	</linearGradient>
	<path display="inline" fill="url(#SVGID_6_)" d="M3.334,2C2.599,2,2,2.598,2,3.333v23.333C2,27.402,2.599,28,3.334,28h23.334
		C27.403,28,28,27.402,28,26.667V3.333C28,2.598,27.403,2,26.669,2H3.334z"/>
	<path display="inline" fill="#A8A7A8" d="M26.669,30H3.334C1.496,30,0,28.505,0,26.667V3.333C0,1.496,1.496,0,3.334,0h23.334
		C28.506,0,30,1.496,30,3.333v23.333C30,28.505,28.506,30,26.669,30z M3.334,2C2.599,2,2,2.598,2,3.333v23.333
		C2,27.402,2.599,28,3.334,28h23.334C27.403,28,28,27.402,28,26.667V3.333C28,2.598,27.403,2,26.669,2H3.334z"/>
</g>
<g id="Red" display="none">
	<linearGradient id="SVGID_7_" gradientUnits="userSpaceOnUse" x1="15" y1="29.1221" x2="15" y2="0.8779">
		<stop  offset="0" style="stop-color:#8C1D1E"/>
		<stop  offset="1" style="stop-color:#EF7F84"/>
	</linearGradient>
	<path display="inline" fill="url(#SVGID_7_)" d="M0.877,27.449V2.551c0-0.924,0.75-1.674,1.674-1.674h24.898
		c0.924,0,1.673,0.75,1.673,1.674v24.898c0,0.924-0.749,1.673-1.673,1.673H2.551C1.627,29.122,0.877,28.373,0.877,27.449z"/>
	<linearGradient id="SVGID_8_" gradientUnits="userSpaceOnUse" x1="15.0005" y1="30" x2="15.0005" y2="4.882812e-04">
		<stop  offset="0" style="stop-color:#F04F56"/>
		<stop  offset="1" style="stop-color:#767875"/>
	</linearGradient>
	<path display="inline" fill="url(#SVGID_8_)" d="M26.669,30H3.334C1.496,30,0,28.505,0,26.667V3.333C0,1.496,1.496,0,3.334,0
		h23.334C28.506,0,30,1.496,30,3.333v23.333C30,28.505,28.506,30,26.669,30z M3.334,2C2.599,2,2,2.598,2,3.333v23.333
		C2,27.402,2.599,28,3.334,28h23.334C27.403,28,28,27.402,28,26.667V3.333C28,2.598,27.403,2,26.669,2H3.334z"/>
</g>
<g id="Green" display="none">
	<linearGradient id="SVGID_9_" gradientUnits="userSpaceOnUse" x1="15.0005" y1="29.1221" x2="15.0005" y2="0.8784">
		<stop  offset="0" style="stop-color:#4E8C5A"/>
		<stop  offset="1" style="stop-color:#A9C87E"/>
	</linearGradient>
	<path display="inline" fill="url(#SVGID_9_)" d="M0.878,27.449V2.552c0-0.925,0.749-1.674,1.674-1.674h24.897
		c0.924,0,1.673,0.749,1.673,1.674v24.897c0,0.924-0.749,1.673-1.673,1.673H2.552C1.627,29.122,0.878,28.373,0.878,27.449z"/>
	<linearGradient id="SVGID_10_" gradientUnits="userSpaceOnUse" x1="15.0005" y1="30" x2="15.0005" y2="4.882812e-04">
		<stop  offset="0" style="stop-color:#85C441"/>
		<stop  offset="0.0555" style="stop-color:#83BA46"/>
		<stop  offset="0.2677" style="stop-color:#7EA15D"/>
		<stop  offset="0.4736" style="stop-color:#7A8F6B"/>
		<stop  offset="0.6689" style="stop-color:#778271"/>
		<stop  offset="0.8491" style="stop-color:#767A74"/>
		<stop  offset="1" style="stop-color:#767875"/>
	</linearGradient>
	<path display="inline" fill="url(#SVGID_10_)" d="M26.669,30H3.334C1.496,30,0,28.505,0,26.667V3.333C0,1.496,1.496,0,3.334,0
		h23.334C28.506,0,30,1.496,30,3.333v23.333C30,28.505,28.506,30,26.669,30z M3.334,2C2.599,2,2,2.598,2,3.333v23.333
		C2,27.402,2.599,28,3.334,28h23.334C27.403,28,28,27.402,28,26.667V3.333C28,2.598,27.403,2,26.669,2H3.334z"/>
</g>
<g id="Yellow" display="none">
	<linearGradient id="SVGID_11_" gradientUnits="userSpaceOnUse" x1="15.1255" y1="29.1221" x2="15.1255" y2="0.8784">
		<stop  offset="0" style="stop-color:#867A4F"/>
		<stop  offset="1" style="stop-color:#FAEF5D"/>
	</linearGradient>
	<path display="inline" fill="url(#SVGID_11_)" d="M1.003,27.449V2.552c0-0.925,0.749-1.674,1.674-1.674h24.897
		c0.924,0,1.673,0.749,1.673,1.674v24.897c0,0.924-0.749,1.673-1.673,1.673H2.677C1.752,29.122,1.003,28.373,1.003,27.449z"/>
	<linearGradient id="SVGID_12_" gradientUnits="userSpaceOnUse" x1="15.0005" y1="30" x2="15.0005" y2="4.882812e-04">
		<stop  offset="0" style="stop-color:#F0E229"/>
		<stop  offset="0.2186" style="stop-color:#BEB659"/>
		<stop  offset="0.4373" style="stop-color:#9C996B"/>
		<stop  offset="0.646" style="stop-color:#868671"/>
		<stop  offset="0.8387" style="stop-color:#7A7B74"/>
		<stop  offset="1" style="stop-color:#767875"/>
	</linearGradient>
	<path display="inline" fill="url(#SVGID_12_)" d="M26.669,30H3.334C1.496,30,0,28.505,0,26.667V3.333C0,1.496,1.496,0,3.334,0
		h23.334C28.506,0,30,1.496,30,3.333v23.333C30,28.505,28.506,30,26.669,30z M3.334,2C2.599,2,2,2.598,2,3.333v23.333
		C2,27.402,2.599,28,3.334,28h23.334C27.403,28,28,27.402,28,26.667V3.333C28,2.598,27.403,2,26.669,2H3.334z"/>
</g>
<g id="Orange" display="none">
	<linearGradient id="SVGID_13_" gradientUnits="userSpaceOnUse" x1="15.1255" y1="29.1221" x2="15.1255" y2="0.8784">
		<stop  offset="0" style="stop-color:#867A4F"/>
		<stop  offset="1" style="stop-color:#F47920"/>
	</linearGradient>
	<path display="inline" fill="url(#SVGID_13_)" d="M1.003,27.449V2.552c0-0.925,0.749-1.674,1.674-1.674h24.897
		c0.924,0,1.673,0.749,1.673,1.674v24.897c0,0.924-0.749,1.673-1.673,1.673H2.677C1.752,29.122,1.003,28.373,1.003,27.449z"/>
	<linearGradient id="SVGID_14_" gradientUnits="userSpaceOnUse" x1="15.0005" y1="30" x2="15.0005" y2="4.882812e-04">
		<stop  offset="0" style="stop-color:#F06F29"/>
		<stop  offset="0.0768" style="stop-color:#DE7135"/>
		<stop  offset="0.2842" style="stop-color:#B97550"/>
		<stop  offset="0.4855" style="stop-color:#9C7762"/>
		<stop  offset="0.6763" style="stop-color:#87786C"/>
		<stop  offset="0.8525" style="stop-color:#7A7873"/>
		<stop  offset="1" style="stop-color:#767875"/>
	</linearGradient>
	<path display="inline" fill="url(#SVGID_14_)" d="M26.669,30H3.334C1.496,30,0,28.505,0,26.667V3.333C0,1.496,1.496,0,3.334,0
		h23.334C28.506,0,30,1.496,30,3.333v23.333C30,28.505,28.506,30,26.669,30z M3.334,2C2.599,2,2,2.598,2,3.333v23.333
		C2,27.402,2.599,28,3.334,28h23.334C27.403,28,28,27.402,28,26.667V3.333C28,2.598,27.403,2,26.669,2H3.334z"/>
</g>
  <g id="motor">
   <circle fill="none" stroke="#ffffff" stroke-width="0.5" stroke-dasharray="null" stroke-linejoin="null" stroke-linecap="null" cx="15.07865" cy="15.07865" r="7.0876" id="svg_43"/>
   <line fill="none" stroke="#ffffff" stroke-width="0.5" stroke-dasharray="null" stroke-linejoin="null" stroke-linecap="null" x1="9.22736" y1="11.24477" x2="5.3955" y2="11.24477" id="svg_44"/>
   <line fill="none" stroke="#ffffff" stroke-width="0.5" stroke-dasharray="null" stroke-linejoin="null" stroke-linecap="null" x1="24.94616" y1="11.2526" x2="21.11429" y2="11.2526" id="svg_45"/>
   <line fill="none" stroke="#ffffff" stroke-width="0.5" stroke-dasharray="null" stroke-linejoin="null" stroke-linecap="null" x1="9.16618" y1="18.74917" x2="5.33432" y2="18.74917" id="svg_48"/>
   <line fill="none" stroke="#ffffff" stroke-width="0.5" stroke-dasharray="null" stroke-linejoin="null" stroke-linecap="null" x1="24.92429" y1="18.75407" x2="21.09243" y2="18.75407" id="svg_49"/>
   <line fill="none" stroke="#ffffff" stroke-width="0.5" stroke-dasharray="null" stroke-linejoin="null" stroke-linecap="null" x1="5.25818" y1="10.99707" x2="5.25818" y2="18.99791" id="svg_50"/>
   <line fill="none" stroke="#ffffff" stroke-width="0.5" stroke-dasharray="null" stroke-linejoin="null" stroke-linecap="null" x1="24.75323" y1="11.00154" x2="24.75323" y2="19.00237" id="svg_51"/>
   <line fill="none" stroke="#ffffff" stroke-width="0.5" stroke-dasharray="null" stroke-linejoin="null" stroke-linecap="null" x1="5.50572" y1="15.02115" x2="1.67386" y2="15.02115" id="svg_53"/>
   <line fill="none" stroke="#ffffff" stroke-width="0.5" stroke-dasharray="null" stroke-linejoin="null" stroke-linecap="null" x1="28.35423" y1="15.00926" x2="24.52236" y2="15.00926" id="svg_54"/>
   <text fill="#ffffff" stroke="#ffffff" stroke-width="0.1" stroke-dasharray="null" stroke-linejoin="null" stroke-linecap="null" x="37.30955" y="62.58773" id="svg_56" font-size="24" font-family="serif" text-anchor="middle" xml:space="preserve" transform="matrix(0.276704, 0, 0, 0.234194, 4.69946, 2.29819)">M</text>
  </g>
</svg>
