<?xml version="1.0" encoding="UTF-8" standalone="no"?>
<svg
   xmlns:dc="http://purl.org/dc/elements/1.1/"
   xmlns:cc="http://creativecommons.org/ns#"
   xmlns:rdf="http://www.w3.org/1999/02/22-rdf-syntax-ns#"
   xmlns:svg="http://www.w3.org/2000/svg"
   xmlns="http://www.w3.org/2000/svg"
   xmlns:sodipodi="http://sodipodi.sourceforge.net/DTD/sodipodi-0.dtd"
   xmlns:inkscape="http://www.inkscape.org/namespaces/inkscape"
   inkscape:version="1.0 (4035a4fb49, 2020-05-01)"
   sodipodi:docname="battery_charging.svg"
   id="svg174"
   preserveAspectRatio="xMidYMid meet"
   viewBox="0 0 479.99994 240.00002"
   height="240.00002pt"
   width="479.99994pt"
   version="1.0">
  <defs
     id="defs178" />
  <sodipodi:namedview
     inkscape:current-layer="layer5"
     inkscape:window-maximized="1"
     inkscape:window-y="-8"
     inkscape:window-x="-8"
     inkscape:cy="-209.73629"
     inkscape:cx="-212.41326"
     inkscape:zoom="0.29623606"
     showgrid="true"
     id="namedview176"
     inkscape:window-height="1017"
     inkscape:window-width="1920"
     inkscape:pageshadow="2"
     inkscape:pageopacity="0"
     guidetolerance="10"
     gridtolerance="10"
     objecttolerance="10"
     borderopacity="1"
     bordercolor="#666666"
     pagecolor="#ffffff"
     inkscape:document-rotation="0">
    <inkscape:grid
       originy="-17.999989"
       originx="-24.000099"
       id="grid1041"
       type="xygrid" />
  </sodipodi:namedview>
  <metadata
     id="metadata2">
Created by potrace 1.15, written by Peter Selinger 2001-2017
<rdf:RDF>
  <cc:Work
     rdf:about="">
    <dc:format>image/svg+xml</dc:format>
    <dc:type
       rdf:resource="http://purl.org/dc/dcmitype/StillImage" />
    <dc:title />
  </cc:Work>
</rdf:RDF>
</metadata>
  <g
     transform="translate(-24.0001,-17.99999)"
     inkscape:groupmode="layer"
     id="layer1"
     inkscape:label="Battery 100%"
     style="display:none">
    <path
       style="fill:#3bb823;fill-opacity:1;stroke-width:0.75"
       fill="currentColor"
       d="M 425.99998,66.000002 V 114 h 24 v 48 h -24 v 48 H 66.000003 V 66.000002 H 425.99998 m 12,-48 H 54.000003 c -19.8825,0 -36,16.1175 -36,36 V 222 c 0,19.8825 16.1175,36 36,36 H 437.99998 c 19.8825,0 36,-16.1175 36,-36 v -12 h 6 c 9.94125,0 18,-8.0588 18,-18 V 84.000002 c 0,-9.9413 -8.05875,-18 -18,-18 h -6 v -12 c 0,-19.8825 -16.1175,-36 -36,-36 z m -36,72 H 90.000002 V 186 H 401.99998 Z"
       id="path1013" />
  </g>
  <g
     transform="translate(-24.0001,-17.99999)"
     inkscape:groupmode="layer"
     id="layer2"
     inkscape:label="Battery 75%"
     style="display:none">
    <path
       sodipodi:nodetypes="cccccccccssssssscsssscssccccc"
       id="path1013-9"
       d="M 422.21471,66.000002 V 114 h 24 v 48 h -24 v 48 H 62.214729 V 66.000002 H 422.21471 m 12,-48 H 50.214729 c -19.8825,0 -36,16.1175 -36,36 V 222 c 0,19.8825 16.1175,36 36,36 H 434.21471 c 19.8825,0 36,-16.1175 36,-36 v -12 h 6 c 9.9412,0 18,-8.0588 18,-18 V 84.000002 c 0,-9.9413 -8.0588,-18 -18,-18 h -6 v -12 c 0,-19.8825 -16.1175,-36 -36,-36 z m -104.2147,72 H 86.214729 V 186 H 330.18181 Z"
       fill="currentColor"
       style="fill:#3bb823;fill-opacity:1;stroke-width:0.75" />
  </g>
  <g
     transform="translate(-24.0001,-17.99999)"
     inkscape:groupmode="layer"
     id="layer3"
     inkscape:label="Battery 50%"
     style="display:none">
    <path
       sodipodi:nodetypes="cccccccccssssssscsssscssccccc"
       id="path1013-0"
       d="M 432.58111,66.000002 V 113.9999 h 24 v 48.00006 h -24 v 48 H 72.581227 V 66.000002 H 432.58111 m 12,-48 H 60.581227 c -19.8825,0 -36,16.1175 -36,36 V 221.99996 c 0,19.8825 16.1175,36 36,36 H 444.58111 c 19.8825,0 36,-16.1175 36,-36 v -12 h 6 c 9.9413,0 18,-8.05875 18,-18 V 84.000002 c 0,-9.9413 -8.0587,-18 -18,-18 h -6 v -12 c 0,-19.8825 -16.1175,-36 -36,-36 z m -174.5811,72 -173.418883,-10e-5 v 96.000058 l 173.418783,-10e-6 z"
       fill="currentColor"
       style="fill:#e28023;fill-opacity:1;stroke-width:0.75" />
  </g>
  <g
     transform="translate(-24.0001,-17.99999)"
     inkscape:groupmode="layer"
     id="layer4"
     inkscape:label="Battery 25%"
     style="display:none">
    <path
       style="fill:#fb0000;fill-opacity:1;stroke-width:0.75"
       fill="currentColor"
       d="M 428.8311,66.000002 V 114 h 24 v 48.00001 h -24 v 48 H 68.831225 V 66.000002 H 428.8311 m 12,-48 H 56.831225 c -19.8825,0 -36,16.1175 -36,36 V 222.00001 c 0,19.8825 16.1175,36 36,36 H 440.8311 c 19.8825,0 36,-16.1175 36,-36 v -12 h 6 c 9.9413,0 18,-8.05875 18,-18 V 84.000002 c 0,-9.94125 -8.0587,-18 -18,-18 h -6 v -12 c 0,-19.8825 -16.1175,-36 -36,-36 z m -260.8311,72 H 92.831125 V 186.00001 H 180.0001 Z"
       id="path1013-0-7"
       sodipodi:nodetypes="cccccccccssssssscsssscssccccc" />
  </g>
  <g
     transform="translate(-24.0001,-17.99999)"
     inkscape:groupmode="layer"
     id="layer5"
     inkscape:label="Battery Empty"
     style="display:none">
    <path
       sodipodi:nodetypes="cccccccccssssssscsssscss"
       id="path1013-01"
       d="m 432.00001,66.000005 v 48.000005 h 24 v 48.00001 h -24 v 47.99999 H 72.000033 V 66.000005 H 432.00001 m 12,-48 H 60.000033 c -19.8825,0 -36,16.1175 -36,36 V 222.00001 c 0,19.8825 16.1175,36 36,36 H 444.00001 c 19.8825,0 36,-16.1175 36,-36 v -12 h 6 c 9.9412,0 18,-8.05875 18,-17.99999 V 84.000005 c 0,-9.94125 -8.0588,-18 -18,-18 h -6 v -12 c 0,-19.8825 -16.1175,-36 -36,-36 z"
       fill="currentColor"
       style="fill:#c0c0c0;fill-opacity:1;stroke-width:0.75" />
  </g>
  <g
     transform="translate(-24.0001,-17.99999)"
     inkscape:groupmode="layer"
     id="layer6"
     inkscape:label="Battery Charging"
     style="display:inline">
    <g
       transform="translate(1094.4189,179.28314)"
       id="g1205">
      <path
         style="stroke-width:0.75"
         fill="currentColor"
         d="m -662.41884,-113.28314 v 47.999998 h 24 v 48.000007 h -24 v 48 H -1022.4188 V -113.28314 h 359.99996 m 12,-48.00001 h -383.99996 c -19.8825,0 -36,16.1175 -36,36 V 42.716865 c 0,19.8825 16.1175,36 36,36 h 383.99996 c 19.8825,0 36,-16.1175 36,-36 v -12 h 6 c 9.94125,0 18,-8.05875 18,-18 v -108.00001 c 0,-9.941245 -8.05875,-17.999995 -18,-17.999995 h -6 v -12.00001 c 0,-19.8825 -16.1175,-36 -36,-36 z"
         id="path1013-5"
         sodipodi:nodetypes="cccccccccssssssscsssscss" />
      <path
         id="path122-6"
         d="m -748.53253,-53.255773 -16.46749,0.755772 -0.95547,9.844631 -0.95548,9.844632 17.12416,1.140737 17.12413,1.140737 -0.17924,7.044686 -0.17922,7.044686 -16.46749,0.755775 -16.46748,0.755774 -1.02121,12.4276821 c -0.7027,9.1461375 -1.95453,12.1689525 -4.53757,12.1032135 -2.1134,-0.05379 -4.17302,-2.220978 -4.81176,-4.821959 -0.62679,-3.0706268 -3.16799,-4.78012447035 -6.69032,-4.86976887 -16.20276,-0.4123651 -42.78906,-17.53723773 -50.63135,-32.54024673 -3.81272,-7.146284 -13.34905,-1.749586 -36.47773,20.689329 -11.56433,11.21945773 -24.05003,21.7105426 -27.60226,22.795012 -21.33726,7.44611 -39.83623,-4.3034904 -66.14338,-41.629105 -9.0642,-13.154307 -11.25107,-19.554287 -6.95852,-22.029767 3.81691,-2.252607 8.20085,0.91364 15.21742,11.431111 12.23221,17.934433 28.71513,35.0371486 36.86821,37.82937 13.50617,4.8082586 23.02458,0.1160335 46.1652,-22.79253 13.73751,-13.513899 23.56844,-21.25285 29.49282,-23.216847 6.15917,-1.958022 10.2348,-5.143945 13.43093,-10.702002 5.42311,-9.965903 25.45304,-21.439861 41.98027,-24.543864 9.20589,-1.645507 12.77602,-3.434445 13.79898,-6.69806 0.77022,-2.565124 2.93742,-4.624742 5.05083,-4.570952 3.05269,0.0777 3.69141,2.678669 3.42846,13.010874 l -0.32869,12.915258 15.96795,0.406387 c 8.92327,0.2271 16.88931,1.134761 17.8047,2.09796 0.91539,0.963195 1.29538,4.497491 0.74208,7.773057 -0.84792,5.617821 -1.79318,5.828739 -17.32136,6.608418 z"
         style="fill:#000000;fill-opacity:1;stroke-width:0.234898"
         sodipodi:nodetypes="cccccccccccscscsccccccccccsscsscc" />
    </g>
  </g>
  <g
     transform="translate(-24.0001,-17.99999)"
     inkscape:groupmode="layer"
     id="layer7"
     inkscape:label="Battery Unknown"
     style="display:none">
    <g
       transform="translate(1100.4189,-145.43373)"
       id="g1211">
      <path
         sodipodi:nodetypes="cccccccccssssssscsssscss"
         id="path1013-5-3"
         d="m -662.41884,223.43373 v 48 h 24 v 48.00001 h -24 v 48 H -1022.4188 V 223.43373 h 359.99996 m 12,-48 h -383.99996 c -19.8825,0 -36,16.1175 -36,36 v 168.00001 c 0,19.8825 16.1175,36 36,36 h 383.99996 c 19.8825,0 36,-16.1175 36,-36 v -12 h 6 c 9.94125,0 18,-8.05875 18,-18 V 241.43373 c 0,-9.94125 -8.05875,-18 -18,-18 h -6 v -12 c 0,-19.8825 -16.1175,-36 -36,-36 z"
         fill="currentColor"
         style="stroke-width:0.75" />
      <g
         aria-label="?"
         transform="matrix(0.04894726,1.0162112,-1.251042,0.03872474,237.49909,2.7461104)"
         id="text1112"
         style="font-style:normal;font-weight:normal;font-size:219.121px;line-height:1.25;font-family:sans-serif;fill:#000000;fill-opacity:1;stroke:none;stroke-width:5.47803">
        <path
           d="m 201.71821,833.20357 c 0,-6.7762 2.17552,-13.62373 6.52655,-20.54259 4.35103,-6.99019 10.69927,-12.76779 19.0447,-17.33282 8.34543,-4.56502 18.08176,-6.84753 29.209,-6.84753 10.34263,0 19.47267,1.92587 27.39012,5.77761 7.91746,3.78041 14.01604,8.95172 18.29575,15.51394 4.35103,6.56221 6.52655,13.69506 6.52655,21.39853 0,6.06292 -1.24825,11.37689 -3.74474,15.94191 -2.42517,4.56502 -5.34963,8.52375 -8.7734,11.87619 -3.35243,3.28111 -9.41535,8.84472 -18.18875,16.69085 -2.42517,2.21119 -4.3867,4.17272 -5.8846,5.8846 -1.42657,1.64055 -2.49649,3.17412 -3.20978,4.60069 -0.71329,1.35524 -1.28391,2.74614 -1.71188,4.17271 -0.35665,1.35524 -0.92728,3.78041 -1.71189,7.2755 -1.35524,7.41816 -5.59928,11.12724 -12.73213,11.12724 -3.70907,0 -6.84752,-1.21258 -9.41535,-3.63775 -2.49649,-2.42517 -3.74474,-6.02725 -3.74474,-10.80626 0,-5.99159 0.92727,-11.1629 2.78181,-15.51394 1.85453,-4.42236 4.31536,-8.2741 7.38249,-11.55521 3.06713,-3.35243 7.20418,-7.31116 12.41115,-11.87618 4.56502,-3.99439 7.84613,-6.99019 9.84333,-8.98739 2.06852,-2.06853 3.7804,-4.35104 5.13565,-6.84753 1.42657,-2.49649 2.13985,-5.20697 2.13985,-8.13144 0,-5.70628 -2.13985,-10.52095 -6.41956,-14.44402 -4.20838,-3.92306 -9.66501,-5.88459 -16.36988,-5.88459 -7.84613,0 -13.62374,1.9972 -17.33281,5.99159 -3.70908,3.92306 -6.84753,9.73633 -9.41536,17.4398 -2.42517,8.06012 -7.02585,12.09018 -13.80206,12.09018 -3.99439,0 -7.38249,-1.39091 -10.1643,-4.17272 -2.71048,-2.85314 -4.06572,-5.92026 -4.06572,-9.20137 z"
           style="font-style:normal;font-variant:normal;font-weight:normal;font-stretch:normal;font-size:219.121px;font-family:'Arial Rounded MT Bold';-inkscape-font-specification:'Arial Rounded MT Bold, Normal';font-variant-ligatures:normal;font-variant-caps:normal;font-variant-numeric:normal;font-variant-east-asian:normal;stroke-width:5.47803"
           id="path1114"
           sodipodi:nodetypes="scssccscccccccscscccscscsccscs" />
      </g>
      <path
         id="path1121-5"
         style="font-style:normal;font-variant:normal;font-weight:normal;font-stretch:normal;font-size:344.481px;line-height:1.25;font-family:'Arial Rounded MT Bold';-inkscape-font-specification:'Arial Rounded MT Bold, Normal';font-variant-ligatures:normal;font-variant-caps:normal;font-variant-numeric:normal;font-variant-east-asian:normal;fill:#000000;fill-opacity:1;stroke:none;stroke-width:3.58834;stroke-opacity:1"
         d="m -965.67801,296.17061 c 0,-6.84028 2.18666,-12.83954 6.56,-17.99778 4.4854,-5.04612 10.70893,-7.56917 18.6706,-7.56917 6.9524,0 12.8395,2.41092 17.6613,7.23276 4.934,4.93397 7.401,10.93323 7.401,17.99778 0,7.06455 -2.467,13.06381 -7.401,17.99779 -4.8218,5.0461 -10.7089,7.56916 -17.6613,7.56916 -7.84954,0 -14.017,-2.52306 -18.5024,-7.56916 -4.48547,-5.04611 -6.7282,-10.93324 -6.7282,-17.66138 z"
         sodipodi:nodetypes="scssscsss" />
    </g>
  </g>
  <g
     transform="translate(-24.0001,-17.99999)"
     inkscape:groupmode="layer"
     id="layer8"
     inkscape:label="Battery Error"
     style="display:none">
    <g
       transform="translate(1100.4189,-482.1506)"
       id="g1216">
      <path
         style="stroke-width:0.75"
         fill="currentColor"
         d="m -662.41884,560.1506 v 48 h 24 v 48.00001 h -24 v 48 H -1022.4188 V 560.1506 h 359.99996 m 12,-48 h -383.99996 c -19.8825,0 -36,16.1175 -36,36 v 168.00001 c 0,19.8825 16.1175,36 36,36 h 383.99996 c 19.8825,0 36,-16.1175 36,-36 v -12 h 6 c 9.94125,0 18,-8.05875 18,-18 V 578.1506 c 0,-9.94125 -8.05875,-18 -18,-18 h -6 v -12 c 0,-19.8825 -16.1175,-36 -36,-36 z"
         id="path1013-5-3-9"
         sodipodi:nodetypes="cccccccccssssssscsssscss" />
      <g
         aria-label="!"
         transform="rotate(90)"
         id="text1119"
         style="font-style:normal;font-variant:normal;font-weight:normal;font-stretch:normal;font-size:344.481px;line-height:1.25;font-family:'Arial Rounded MT Bold';-inkscape-font-specification:'Arial Rounded MT Bold, Normal';font-variant-ligatures:normal;font-variant-caps:normal;font-variant-numeric:normal;font-variant-east-asian:normal;fill:#000000;fill-opacity:1;stroke:none;stroke-width:3.58834">
        <path
           d="m 616.27062,849.21842 -5.38251,-80.56953 q -1.51384,-23.5485 -1.51384,-33.80892 0,-13.9609 7.23276,-21.69827 7.40096,-7.90557 19.34341,-7.90557 14.46551,0 19.34342,10.09222 4.8779,9.92401 4.8779,28.76281 0,11.10144 -1.17742,22.53929 l -7.23276,82.92438 q -1.17742,14.80191 -5.04611,22.70748 -3.86868,7.90557 -12.78347,7.90557 -9.08299,0 -12.61527,-7.56916 -3.53228,-7.73737 -5.04611,-23.3803 z m 18.6706,110.67797 q -10.26042,0 -17.99778,-6.55994 -7.56917,-6.72814 -7.56917,-18.6706 0,-10.42862 7.23276,-17.66138 7.40096,-7.40096 17.99778,-7.40096 10.59683,0 17.99779,7.40096 7.56916,7.23276 7.56916,17.66138 0,11.77425 -7.56916,18.5024 -7.56916,6.72814 -17.66138,6.72814 z"
           style="font-style:normal;font-variant:normal;font-weight:normal;font-stretch:normal;font-size:344.481px;font-family:'Arial Rounded MT Bold';-inkscape-font-specification:'Arial Rounded MT Bold, Normal';font-variant-ligatures:normal;font-variant-caps:normal;font-variant-numeric:normal;font-variant-east-asian:normal;stroke-width:3.58834"
           id="path1121" />
      </g>
    </g>
  </g>
</svg>
