<?xml version="1.0" encoding="UTF-8" standalone="no"?>
<svg
   xmlns:dc="http://purl.org/dc/elements/1.1/"
   xmlns:cc="http://creativecommons.org/ns#"
   xmlns:rdf="http://www.w3.org/1999/02/22-rdf-syntax-ns#"
   xmlns:svg="http://www.w3.org/2000/svg"
   xmlns="http://www.w3.org/2000/svg"
   xmlns:sodipodi="http://sodipodi.sourceforge.net/DTD/sodipodi-0.dtd"
   xmlns:inkscape="http://www.inkscape.org/namespaces/inkscape"
   inkscape:version="1.0 (4035a4fb49, 2020-05-01)"
   sodipodi:docname="r_icon_opsmode_tethered.svg"
   id="svg32"
   version="1.1"
   viewBox="0 0 32 32"
   height="8.46561mm"
   width="8.46561mm">
  <metadata
     id="metadata38">
    <rdf:RDF>
      <cc:Work
         rdf:about="">
        <dc:format>image/svg+xml</dc:format>
        <dc:type
           rdf:resource="http://purl.org/dc/dcmitype/StillImage" />
        <dc:title></dc:title>
      </cc:Work>
    </rdf:RDF>
  </metadata>
  <defs
     id="defs36" />
  <sodipodi:namedview
     inkscape:current-layer="layer7"
     inkscape:window-maximized="1"
     inkscape:window-y="-8"
     inkscape:window-x="-8"
     inkscape:cy="3.360311"
     inkscape:cx="52.881835"
     inkscape:zoom="14.01408"
     showgrid="false"
     id="namedview34"
     inkscape:window-height="1017"
     inkscape:window-width="1920"
     inkscape:pageshadow="2"
     inkscape:pageopacity="0"
     guidetolerance="10"
     gridtolerance="10"
     objecttolerance="10"
     borderopacity="1"
     bordercolor="#666666"
     pagecolor="#ffffff" />
  <g
     style="display:inline"
     inkscape:label="Box"
     id="layer2"
     inkscape:groupmode="layer">
    <rect
       ry="5.0413899"
       y="5.9501829"
       x="1.615977"
       height="24.990656"
       width="24.990656"
       id="rect65"
       style="fill:#ffffff;fill-opacity:1;fill-rule:evenodd;stroke:#000000;stroke-width:2.00025;stroke-linecap:butt;stroke-linejoin:round;stroke-miterlimit:4;stroke-dasharray:none;stroke-opacity:1" />
  </g>
  <g
     style="display:none"
     inkscape:label="FOLLOW"
     id="layer5"
     inkscape:groupmode="layer">
    <text
       id="text1271"
       y="12.000131"
       x="13.362308"
       style="font-size:26.67px;line-height:1.25;font-family:sans-serif;-inkscape-font-specification:'sans-serif, Normal';stroke-width:1.00012"
       xml:space="preserve"><tspan
         style="stroke-width:1.00012"
         y="12.000131"
         x="13.362308"
         id="tspan1269"
         sodipodi:role="line" /></text>
    <text
       id="text1275"
       y="22.562286"
       x="4.2552891"
       style="font-size:14.8213px;line-height:1.25;font-family:sans-serif;-inkscape-font-specification:'sans-serif, Normal';display:inline;fill:#3bb823;fill-opacity:1;stroke:#3bb823;stroke-width:0.555794;stroke-opacity:1"
       xml:space="preserve"><tspan
         style="font-style:normal;font-variant:normal;font-weight:normal;font-stretch:normal;font-size:14.8213px;font-family:Wingdings;-inkscape-font-specification:'Wingdings, Normal';font-variant-ligatures:normal;font-variant-caps:normal;font-variant-numeric:normal;font-variant-east-asian:normal;fill:#3bb823;fill-opacity:1;stroke:#3bb823;stroke-width:0.555794;stroke-opacity:1"
         y="22.562286"
         x="4.2552891"
         id="tspan1273"
         sodipodi:role="line">Æ</tspan></text>
    <circle
       r="2.7749426"
       cy="15.202396"
       cx="20.196686"
       id="path1279"
       style="fill:#3bb823;fill-opacity:1;stroke:none;stroke-width:1.48729;stroke-linecap:round;stroke-linejoin:round;stroke-miterlimit:4;stroke-dasharray:none;stroke-opacity:1" />
  </g>
  <g
     style="display:none"
     inkscape:label="STANDBY"
     id="layer1"
     inkscape:groupmode="layer">
    <path
       d="m 14.09062,28.144375 c -4.699611,0 -8.514143,-3.814598 -8.514143,-8.514142 0,-2.340682 0.950055,-4.457283 2.480839,-5.996063 l 0.0072,0.0072 c 0.309463,-0.427234 0.809294,-0.707612 1.376777,-0.70761 0.939908,0 1.703549,0.762435 1.703549,1.702348 0,0.576355 -0.28822,1.084266 -0.726833,1.392392 l 0.006,0.006 c -0.919808,0.926371 -1.495711,2.191211 -1.495711,3.595715 0,2.833355 2.310885,5.133473 5.157501,5.133473 2.846618,2e-6 5.1563,-2.300116 5.1563,-5.133473 0,-1.281823 -0.482101,-2.444263 -1.265048,-3.342225 -0.465736,-0.303962 -0.776087,-0.827577 -0.776087,-1.424831 0,-0.939912 0.763641,-1.703549 1.703549,-1.703549 0.459503,0 0.874537,0.185553 1.180952,0.481752 l 0.02403,-0.02403 c 1.539766,1.539943 2.494053,3.664444 2.494055,6.012882 0,4.699544 -3.813332,8.514143 -8.512943,8.514143 z m -0.0013,-8.455276 c -0.943315,0 -1.702347,-0.772814 -1.702347,-1.733583 v -6.86826 c 0,-0.960768 0.759032,-1.7335843 1.702347,-1.7335843 0.943317,0 1.703552,0.7728143 1.703549,1.7335843 v 6.86826 c 0,0.960769 -0.760232,1.733583 -1.703549,1.733583 z"
       id="path8"
       style="color:#000000;display:inline;visibility:visible;fill:#3bb823;fill-opacity:1;fill-rule:evenodd;stroke:none;stroke-width:0.146312;stroke-linecap:round;stroke-linejoin:round;stroke-miterlimit:4;stroke-dashoffset:0;stroke-opacity:0.841176;marker:none;marker-start:none;marker-mid:none;marker-end:none" />
  </g>
  <g
     style="display:none"
     inkscape:label="ATC"
     id="layer6"
     inkscape:groupmode="layer">
    <text
       id="text1284"
       y="26.87335"
       x="3.9080975"
       style="font-size:22.941px;line-height:1.25;font-family:sans-serif;-inkscape-font-specification:'sans-serif, Normal';fill:#3bb823;fill-opacity:1;stroke-width:0.860281"
       xml:space="preserve"><tspan
         style="font-style:normal;font-variant:normal;font-weight:normal;font-stretch:normal;font-family:Wingdings;-inkscape-font-specification:Wingdings;fill:#3bb823;fill-opacity:1;stroke-width:0.860281"
         y="26.87335"
         x="3.9080975"
         id="tspan1282"
         sodipodi:role="line">Ý</tspan></text>
  </g>
  <g
     inkscape:label="TETHERED"
     id="layer7"
     inkscape:groupmode="layer">
    <g
       style="display:inline;fill:#3bb823;fill-opacity:1"
       transform="matrix(0.69516666,0,0,0.69793849,3.68047,8.0590138)"
       id="steering_x5F_wheel">
      <path
         style="fill:#3bb823;fill-opacity:1"
         id="svg_1"
         fill="#ffffff"
         d="m 15.0518,3.12875 c -6.58943,0 -11.93194,5.34513 -11.93194,11.93777 0,6.59264 5.34252,11.93772 11.93194,11.93772 6.58942,0 11.93189,-5.34513 11.93189,-11.93772 0,-6.59259 -5.34252,-11.93777 -11.93189,-11.93777 z m 0,2.98444 c 3.88306,0 7.16285,2.50245 8.40153,5.96889 H 6.6502 C 7.88888,8.61564 11.16869,6.11319 15.05179,6.11319 Z m 0,10.44554 c -0.82405,0 -1.49149,-0.66775 -1.49149,-1.4922 0,-0.82445 0.66744,-1.49222 1.49149,-1.49222 0.82405,0 1.49148,0.66777 1.49148,1.49222 0,0.82445 -0.66743,1.4922 -1.49148,1.4922 z m -8.94896,-1.4922 c 4.07552,0 7.37618,3.92897 7.44554,8.80183 C 9.33043,23.14537 6.10284,19.48794 6.10284,15.06653 Z m 10.45237,8.80183 c 0.06935,-4.87285 3.37,-8.80183 7.4455,-8.80183 0,4.42141 -3.22758,8.07884 -7.4455,8.80183 z" />
    </g>
  </g>
  <g
     style="display:none"
     inkscape:label="PCS"
     id="layer3"
     inkscape:groupmode="layer">
    <path
       style="display:inline;fill:#3bb823;fill-opacity:1;stroke-width:0.220027;stroke-miterlimit:4;stroke-dasharray:none"
       fill-rule="evenodd"
       clip-rule="evenodd"
       d="m 23.003589,23.529328 c -0.622788,0.468986 -1.595475,0.434238 -2.194317,-0.157597 -0.635514,-0.627929 -1.029423,-1.387901 -1.625673,-2.147198 -0.282813,-0.359586 -0.550953,-0.562693 -1.190782,-0.343445 -1.257009,0.431548 -2.61497,0.53467 -3.919006,0.504631 -1.061562,-0.0088 -2.252129,-0.05762 -3.50935,-0.48849 C 9.924848,20.677757 9.656704,20.880639 9.37411,21.240673 8.777641,21.999748 8.3839523,22.759271 7.7482204,23.387647 7.1498103,23.979035 6.1769074,24.014231 5.5539059,23.544797 4.6662115,22.876516 4.4645142,22.3071 4.6912369,21.414637 5.047393,20.011941 5.7398575,17.20072 6.0834994,15.794439 6.7669052,12.998462 7.3830054,12.54293 9.79757,12.420079 c 0.558073,-0.02824 1.286993,-0.03206 1.751441,0.753245 0.205368,0.34748 0.55354,0.291882 0.879927,0.291209 h 3.699616 c 0.326602,6.73e-4 0.67413,0.04058 0.880144,-0.306902 0.464015,-0.785303 1.192721,-0.78194 1.751007,-0.753469 2.414568,0.123074 3.033688,0.577487 3.714286,3.374584 0.455821,1.875043 0.874966,3.633738 1.392267,5.619974 0.23233,0.891341 0.02523,1.462104 -0.862669,2.130608 z M 11.294245,16.320365 H 10.32393 v -1.008362 c 0,-0.296814 -0.231684,-0.537584 -0.517298,-0.537584 H 9.404313 c -0.285832,0 -0.5173,0.24077 -0.5173,0.537584 v 1.008362 H 7.9166995 c -0.2856161,0 -0.5172986,0.240546 -0.5172986,0.537585 v 0.418096 c 0,0.296815 0.2316825,0.537583 0.5172986,0.537583 H 8.887013 v 1.008589 c 0,0.296813 0.231684,0.537135 0.5173,0.537135 h 0.402319 c 0.285614,0 0.517298,-0.240322 0.517298,-0.537135 v -1.008589 h 0.970315 c 0.285616,0 0.517082,-0.240768 0.517082,-0.537583 v -0.417872 c 0,-0.29704 -0.231466,-0.537809 -0.517082,-0.537809 z m 7.277134,-1.571056 c -0.536498,0 -0.972039,0.452397 -0.972039,1.010158 0,0.557535 0.435541,1.009706 0.972039,1.009706 0.536714,0 0.972258,-0.452171 0.972258,-1.009706 -2.15e-4,-0.557761 -0.435544,-1.010158 -0.972258,-1.010158 z m -1.41513,2.52741 c -0.536282,0 -0.971607,0.452171 -0.971607,1.009707 0,0.557762 0.435325,1.010155 0.971607,1.010155 0.536716,0 0.972042,-0.452393 0.972042,-1.010155 0,-0.557536 -0.435326,-1.009707 -0.972042,-1.009707 z m 2.830262,0 c -0.537146,0 -0.971608,0.452171 -0.971608,1.009707 0,0.557762 0.434462,1.010155 0.971608,1.010155 0.536714,0 0.97161,-0.452393 0.97161,-1.010155 0,-0.557536 -0.434896,-1.009707 -0.97161,-1.009707 z"
       id="path1190" />
  </g>
  <g
     style="display:none;mix-blend-mode:normal"
     inkscape:label="NAVIGATION"
     id="layer4"
     inkscape:groupmode="layer">
    <path
       style="fill:#ffffff;fill-opacity:1;stroke-width:0.0962256"
       d="m 15.273899,8.8330453 c -1.67259,0 -3.02864,1.0758103 -3.02864,2.4027437 0,1.326935 3.02864,6.168077 3.02864,6.168077 0,0 3.02864,-4.841057 3.02864,-6.168077 0,-1.3270203 -1.355941,-2.4027437 -3.02864,-2.4027437 z m 0,3.4692117 c -0.742305,0 -1.344165,-0.477567 -1.344165,-1.066381 0,-0.588988 0.60186,-1.066382 1.344165,-1.066382 0.742414,0 1.344166,0.477394 1.344166,1.066382 1.08e-4,0.588814 -0.601752,1.066381 -1.344166,1.066381 z"
       id="path1212" />
    <path
       sodipodi:nodetypes="cssccc"
       id="path1263"
       d="m 7.8845724,26.657996 c 0,0 3.4100516,-2.115653 7.4881126,-0.197106 2.421554,1.139234 3.861857,-2.687526 2.596645,-4.351385 -2.053517,-2.700547 -4.795264,1.64198 -7.325686,-0.129314 -2.5304212,-3.626937 4.630255,-4.576325 4.630255,-4.576325 v 0"
       style="display:inline;fill:none;stroke:#ffffff;stroke-width:1.00012;stroke-linecap:round;stroke-linejoin:round;stroke-miterlimit:4;stroke-dasharray:none;stroke-opacity:1" />
  </g>
</svg>
