<?xml version="1.0" encoding="UTF-8" standalone="no"?>
<!DOCTYPE svg PUBLIC "-//W3C//DTD SVG 20010904//EN"
              "http://www.w3.org/TR/2001/REC-SVG-20010904/DTD/svg10.dtd">

<svg xmlns="http://www.w3.org/2000/svg"
     width="8.46561mm" height="8.46561mm"
     viewBox="0 0 32 32">
  <path id="circle"
        fill="#989898" stroke="black" stroke-width="2"
        d="M 12.00,4.39
           C -1.98,10.06 2.10,26.47 14.00,27.80
             30.36,29.63 32.94,5.98 17.00,4.39
             14.97,3.97 13.94,4.24 12.00,4.39 Z" />
  <path id="location_arrow"
        fill="white" stroke="none"
        d="M 7.50,20.62
           C 7.50,20.62 16.50,6.50 16.50,6.50
             16.50,6.50 16.48,15.56 16.48,15.56
             16.48,15.56 7.50,20.62 7.50,20.62 Z
		   M 24.50,20.56
           C 24.50,20.56 16.50,6.51 16.50,6.51
             16.50,6.51 16.48,15.58 16.48,15.58
             16.48,15.58 24.50,20.56 24.50,20.56 Z" />
</svg>
