<?xml version="1.0" encoding="UTF-8" standalone="no"?>
<!DOCTYPE svg PUBLIC "-//W3C//DTD SVG 20010904//EN"
              "http://www.w3.org/TR/2001/REC-SVG-20010904/DTD/svg10.dtd">

<svg xmlns="http://www.w3.org/2000/svg"
     width="8.46561mm" height="8.46561mm"
     viewBox="0 0 32 32">
  <path id="circle"
        fill="#ff0000" stroke="black" stroke-width="2"
        d="M 12.00,4.39
           C -1.98,10.06 2.10,26.47 14.00,27.80
             30.36,29.63 32.94,5.98 17.00,4.39
             14.97,3.97 13.94,4.24 12.00,4.39 Z" />
  <path id="exclamation_mark"
        fill="white" stroke="none" stroke-width="4"
        d="M 19.00,7.00
           C 19.00,7.00 18.45,21.00 18.45,21.00
             18.45,21.00 14.55,21.00 14.55,21.00
             14.55,21.00 14.00,7.00 14.00,7.00
             14.00,7.00 19.00,7.00 19.00,7.00 Z
           M 19.00,26.00
           C 19.00,26.00 14.00,26.00 14.00,26.00
             14.00,26.00 14.00,23.00 14.00,23.00
             14.00,23.00 19.00,23.00 19.00,23.00
             19.00,23.00 19.00,26.00 19.00,26.00 Z" />
</svg>
