<?xml version="1.0" encoding="UTF-8" standalone="no"?>
<!DOCTYPE svg PUBLIC "-//W3C//DTD SVG 20010904//EN"
              "http://www.w3.org/TR/2001/REC-SVG-20010904/DTD/svg10.dtd">

<svg xmlns="http://www.w3.org/2000/svg"
     width="8.46561mm" height="8.46561mm"
     viewBox="0 0 32 32">
  <path id="circle"
        fill="#989898" stroke="black" stroke-width="2"
        d="M 12.00,4.39
           C -1.98,10.06 2.10,26.47 14.00,27.80
             30.36,29.63 32.94,5.98 17.00,4.39
             14.97,3.97 13.94,4.24 12.00,4.39 Z" />
  <path id="question_mark"
        fill="white" stroke="none"
        d="M 23.00,11.92
           C 23.00,12.77 22.88,13.51 22.64,14.16
             22.40,14.80 22.06,15.37 21.62,15.84
             21.20,16.31 20.68,16.73 20.06,17.11
             19.46,17.48 18.77,17.83 18.00,18.14
             18.00,18.14 18.00,21.00 18.00,21.00
             18.00,21.00 14.00,21.00 14.00,21.00
             14.00,21.00 14.00,16.78 14.00,16.78
             14.50,16.62 14.95,16.45 15.36,16.27
             15.77,16.08 16.21,15.78 16.66,15.38
             17.07,15.02 17.40,14.61 17.64,14.12
             17.88,13.65 18.00,13.11 18.00,12.50
             18.00,11.59 17.75,10.95 17.27,10.58
             16.77,10.20 16.09,10.00 15.20,10.00
             14.65,10.00 14.03,10.09 13.34,10.28
             12.66,10.47 12.02,10.71 11.45,11.00
             11.45,11.00 11.00,11.00 11.00,11.00
             11.00,11.00 11.00,7.88 11.00,7.88
             11.51,7.70 12.29,7.51 13.34,7.31
             14.41,7.11 15.48,7.00 16.58,7.00
             18.55,7.00 20.11,7.45 21.27,8.36
             22.42,9.27 23.00,10.45 23.00,11.92 Z
           M 19.00,26.00
           C 19.00,26.00 14.00,26.00 14.00,26.00
             14.00,26.00 14.00,23.00 14.00,23.00
             14.00,23.00 19.00,23.00 19.00,23.00
             19.00,23.00 19.00,26.00 19.00,26.00 Z" />
</svg>
