<?xml version="1.0" encoding="UTF-8" standalone="no"?>
<svg
   xmlns:dc="http://purl.org/dc/elements/1.1/"
   xmlns:cc="http://creativecommons.org/ns#"
   xmlns:rdf="http://www.w3.org/1999/02/22-rdf-syntax-ns#"
   xmlns:svg="http://www.w3.org/2000/svg"
   xmlns="http://www.w3.org/2000/svg"
   xmlns:sodipodi="http://sodipodi.sourceforge.net/DTD/sodipodi-0.dtd"
   xmlns:inkscape="http://www.inkscape.org/namespaces/inkscape"
   inkscape:version="1.0 (4035a4fb49, 2020-05-01)"
   sodipodi:docname="r_icon_opsmode_standby.svg"
   id="svg32"
   version="1.1"
   viewBox="0 0 32 32"
   height="8.46561mm"
   width="8.46561mm">
  <metadata
     id="metadata38">
    <rdf:RDF>
      <cc:Work
         rdf:about="">
        <dc:format>image/svg+xml</dc:format>
        <dc:type
           rdf:resource="http://purl.org/dc/dcmitype/StillImage" />
      </cc:Work>
    </rdf:RDF>
  </metadata>
  <defs
     id="defs36" />
  <sodipodi:namedview
     inkscape:current-layer="svg32"
     inkscape:window-maximized="1"
     inkscape:window-y="-8"
     inkscape:window-x="-8"
     inkscape:cy="32.689945"
     inkscape:cx="-21.272998"
     inkscape:zoom="5.1579519"
     showgrid="false"
     id="namedview34"
     inkscape:window-height="1017"
     inkscape:window-width="1920"
     inkscape:pageshadow="2"
     inkscape:pageopacity="0"
     guidetolerance="10"
     gridtolerance="10"
     objecttolerance="10"
     borderopacity="1"
     bordercolor="#666666"
     pagecolor="#ffffff" />
  <rect
     ry="5.0413899"
     y="5.9501829"
     x="1.615977"
     height="24.990656"
     width="24.990656"
     id="rect65"
     style="fill:#ffffff;fill-opacity:1;fill-rule:evenodd;stroke:#000000;stroke-width:2.00024977;stroke-linecap:butt;stroke-linejoin:round;stroke-miterlimit:4;stroke-dasharray:none;stroke-opacity:1" />
  <path
     d="m 14.09062,28.144375 c -4.699611,0 -8.514143,-3.814598 -8.514143,-8.514142 0,-2.340682 0.950055,-4.457283 2.480839,-5.996063 l 0.0072,0.0072 c 0.309463,-0.427234 0.809294,-0.707612 1.376777,-0.70761 0.939908,0 1.703549,0.762435 1.703549,1.702348 0,0.576355 -0.28822,1.084266 -0.726833,1.392392 l 0.006,0.006 c -0.919808,0.926371 -1.495711,2.191211 -1.495711,3.595715 0,2.833355 2.310885,5.133473 5.157501,5.133473 2.846618,2e-6 5.1563,-2.300116 5.1563,-5.133473 0,-1.281823 -0.482101,-2.444263 -1.265048,-3.342225 -0.465736,-0.303962 -0.776087,-0.827577 -0.776087,-1.424831 0,-0.939912 0.763641,-1.703549 1.703549,-1.703549 0.459503,0 0.874537,0.185553 1.180952,0.481752 l 0.02403,-0.02403 c 1.539766,1.539943 2.494053,3.664444 2.494055,6.012882 0,4.699544 -3.813332,8.514143 -8.512943,8.514143 z m -0.0013,-8.455276 c -0.943315,0 -1.702347,-0.772814 -1.702347,-1.733583 v -6.86826 c 0,-0.960768 0.759032,-1.7335843 1.702347,-1.7335843 0.943317,0 1.703552,0.7728143 1.703549,1.7335843 v 6.86826 c 0,0.960769 -0.760232,1.733583 -1.703549,1.733583 z"
     id="path8"
     style="color:#000000;display:inline;visibility:visible;fill:#3bb823;fill-opacity:1;fill-rule:evenodd;stroke:none;stroke-width:0.146312;stroke-linecap:round;stroke-linejoin:round;stroke-miterlimit:4;stroke-dashoffset:0;stroke-opacity:0.841176;marker:none;marker-start:none;marker-mid:none;marker-end:none" />
</svg>
