<?xml version="1.0" encoding="UTF-8" standalone="no"?>
<!DOCTYPE svg PUBLIC "-//W3C//DTD SVG 20010904//EN"
              "http://www.w3.org/TR/2001/REC-SVG-20010904/DTD/svg10.dtd">

<svg xmlns="http://www.w3.org/2000/svg"
     width="16.9312mm" height="16.9312mm"
     viewBox="0 0 64 64">
	<path id="tyres"
        fill="#f1f1f1" stroke="#f1f1f1" stroke-width="1"
        d="M 50.42,51.44
           C 50.42,51.44 50.43,56.00 50.43,56.00
             50.43,56.00 45.44,56.03 45.44,56.03
             45.44,56.03 45.43,55.35 45.43,55.35
             45.43,55.35 45.42,54.43 45.42,54.43
             45.42,54.43 50.42,51.44 50.42,51.44 Z
           M 18.42,54.50
           C 18.42,54.50 18.39,55.58 18.40,55.58
             18.41,55.58 18.41,55.99 18.41,55.99
             18.41,55.99 13.57,56.01 13.57,56.01
             13.57,56.01 13.54,51.67 13.54,51.67
             13.54,51.67 18.42,54.50 18.42,54.50 Z" />
	<path id="outline"
        fill="#68abfa" stroke="black" stroke-width="1"
        d="M 43.38,6.50
           C 43.38,6.50 50.56,12.56 50.56,12.56
             50.56,12.56 50.44,51.44 50.44,51.44
             50.44,51.44 45.44,54.44 45.44,54.44
             45.44,54.44 18.38,54.50 18.38,54.50
             18.38,54.50 13.56,51.62 13.56,51.62
             13.56,51.62 13.50,12.56 13.50,12.56
             13.50,12.56 20.44,6.56 20.44,6.56
             20.44,6.56 43.38,6.50 43.38,6.50 Z" />
  <path id="v_lines"
        fill="none" stroke="black" stroke-width="1"
        d="M 21.53,6.56
           C 21.53,6.56 21.50,54.47 21.50,54.47M 42.50,54.50
           C 42.50,54.50 42.50,6.50 42.50,6.50" />
  <path id="rear_bar"
        fill="none" stroke="black" stroke-width="1"
        d="M 45.41,54.44
           C 45.41,54.44 45.44,55.53 45.44,55.53
             45.44,55.53 44.47,56.47 44.47,56.47
             44.47,56.47 19.44,56.53 19.44,56.53
             19.44,56.53 18.42,55.59 18.42,55.59
             18.42,55.59 18.41,54.53 18.41,54.53M 50.40,55.90" />
  <path id="arrow"
        fill="#ffffff" stroke="black" stroke-width="1"
        d="M 29.41,27.53
           C 29.41,27.53 24.38,27.50 24.38,27.50
             24.38,27.50 31.50,20.50 31.50,20.50
             31.50,20.50 32.50,20.50 32.50,20.50
             32.50,20.50 39.47,27.47 39.47,27.47
             39.47,27.47 34.47,27.56 34.47,27.56
             34.47,27.56 34.50,33.50 34.50,33.50
             34.50,33.50 29.44,33.50 29.44,33.50
             29.44,33.50 29.41,27.53 29.41,27.53 Z" />
  
</svg>
