<?xml version="1.0" encoding="UTF-8" standalone="no"?>
<svg
   xmlns:dc="http://purl.org/dc/elements/1.1/"
   xmlns:cc="http://creativecommons.org/ns#"
   xmlns:rdf="http://www.w3.org/1999/02/22-rdf-syntax-ns#"
   xmlns:svg="http://www.w3.org/2000/svg"
   xmlns="http://www.w3.org/2000/svg"
   xmlns:sodipodi="http://sodipodi.sourceforge.net/DTD/sodipodi-0.dtd"
   xmlns:inkscape="http://www.inkscape.org/namespaces/inkscape"
   inkscape:version="1.0 (4035a4fb49, 2020-05-01)"
   sodipodi:docname="m_icon_robot_dead.svg"
   id="svg7"
   version="1.1"
   viewBox="0 0 64 64"
   height="16.9312mm"
   width="16.9312mm">
  <metadata
     id="metadata13">
    <rdf:RDF>
      <cc:Work
         rdf:about="">
        <dc:format>image/svg+xml</dc:format>
        <dc:type
           rdf:resource="http://purl.org/dc/dcmitype/StillImage" />
      </cc:Work>
    </rdf:RDF>
  </metadata>
  <defs
     id="defs11" />
  <sodipodi:namedview
     inkscape:current-layer="svg7"
     inkscape:window-maximized="1"
     inkscape:window-y="-8"
     inkscape:window-x="-8"
     inkscape:cy="31.995969"
     inkscape:cx="31.995969"
     inkscape:zoom="13.282923"
     showgrid="false"
     id="namedview9"
     inkscape:window-height="1017"
     inkscape:window-width="1920"
     inkscape:pageshadow="2"
     inkscape:pageopacity="0"
     guidetolerance="10"
     gridtolerance="10"
     objecttolerance="10"
     borderopacity="1"
     bordercolor="#666666"
     pagecolor="#ffffff" />
  <path
     d="M 43.38,6.50            C 43.38,6.50 50.56,12.56 50.56,12.56              50.56,12.56 50.44,51.44 50.44,51.44              50.44,51.44 45.44,54.44 45.44,54.44              45.44,54.44 18.38,54.50 18.38,54.50              18.38,54.50 13.56,51.62 13.56,51.62              13.56,51.62 13.50,12.56 13.50,12.56              13.50,12.56 20.44,6.56 20.44,6.56              20.44,6.56 43.38,6.50 43.38,6.50 Z"
     stroke-width="1"
     stroke="black"
     fill="#989898"
     id="outline" />
  <path
     d="M 21.53,6.56            C 21.53,6.56 21.50,54.47 21.50,54.47M 42.50,54.50            C 42.50,54.50 42.50,6.50 42.50,6.50"
     stroke-width="1"
     stroke="black"
     fill="none"
     id="v_lines" />
  <path
     d="M 45.41,54.44            C 45.41,54.44 45.44,55.53 45.44,55.53              45.44,55.53 44.47,56.47 44.47,56.47              44.47,56.47 19.44,56.53 19.44,56.53              19.44,56.53 18.42,55.59 18.42,55.59              18.42,55.59 18.41,54.53 18.41,54.53M 50.40,55.90"
     stroke-width="1"
     stroke="black"
     fill="none"
     id="rear_bar" />
  <path
     d="M 37.38,19.38            C 37.38,19.38 44.44,26.44 44.44,26.44M 37.62,26.56            C 37.62,26.56 44.44,19.38 44.44,19.38M 26.62,26.50            C 26.56,26.56 19.62,19.44 19.62,19.44M 19.50,26.62            C 19.50,26.62 26.56,19.38 26.56,19.38M 18.62,36.75            C 18.62,36.75 45.31,36.62 45.31,36.62              45.31,36.62 45.25,40.25 45.25,40.25              45.25,40.25 45.69,43.16 42.12,44.25              42.12,44.25 40.71,45.13 38.00,44.38              38.00,44.38 35.82,43.18 35.81,40.69              35.81,40.69 35.84,36.69 35.84,36.69"
     stroke-width="1.5"
     stroke="white"
     fill="none"
     id="dead_face" />
</svg>
